<?xml version="1.0" encoding="UTF-8"?> <svg xmlns="http://www.w3.org/2000/svg" viewBox="0 0 100 100"><defs><style>.a,.b{fill:none;stroke-linecap:round;stroke-linejoin:round;stroke-width:3px;}.a{stroke:#884f9c;}.b{stroke:#777c7e;}.c{fill:#f89834;}</style></defs><title>Icon-video-like</title><path class="a" d="M50.1,58.6c-3.1-4.1-3-10.9-2.5-13.8a3.7,3.7,0,0,1,1.7-2.5,3.7,3.7,0,0,1,2.9-.5,3.9,3.9,0,0,1,2.9,3.8v2.2A12.2,12.2,0,0,0,57.3,55a8.9,8.9,0,0,0,4.5,3.6,31.4,31.4,0,0,1,10,6.5" transform="translate(20 20)"></path><path class="a" d="M48.4,65.1H41.7a3.3,3.3,0,0,1-3.3-3.3h0a3.4,3.4,0,0,1,3.3-3.4h6.7a3.4,3.4,0,0,1,3.3,3.4h0A3.3,3.3,0,0,1,48.4,65.1Z" transform="translate(20 20)"></path><path class="a" d="M53.4,71.8h-15A3.4,3.4,0,0,1,35,68.5h0a3.4,3.4,0,0,1,3.4-3.4h15a3.4,3.4,0,0,1,3.4,3.4h0A3.4,3.4,0,0,1,53.4,71.8Z" transform="translate(20 20)"></path><path class="a" d="M36.7,78.5l-.7-.6a3.8,3.8,0,0,1-.9-3.4,3.5,3.5,0,0,1,3.4-2.7H53.4a3.2,3.2,0,0,1,2.4,1.1,3.8,3.8,0,0,1-.7,5.6" transform="translate(20 20)"></path><path class="a" d="M78.5,62.2h-5a1.8,1.8,0,0,0-1.7,1.7V78.5" transform="translate(20 20)"></path><path class="b" d="M21.6,61.8H-11.8a6.7,6.7,0,0,1-6.7-6.7V-11.8a6.7,6.7,0,0,1,6.7-6.7H55.1a6.7,6.7,0,0,1,6.7,6.7V33.3" transform="translate(20 20)"></path><path class="b" d="M21.6,55.1V73.5a5,5,0,0,0,5.1,5H73.5a5,5,0,0,0,5-5V40a5,5,0,0,0-5-5H26.7a5.1,5.1,0,0,0-5.1,5v1.7" transform="translate(20 20)"></path><path class="b" d="M23.3,41.7h-11a1.5,1.5,0,0,0-1.5,1,1.7,1.7,0,0,0,.3,1.9L23.3,56.8" transform="translate(20 20)"></path><path class="b" d="M14.9,35H-8.5a1.6,1.6,0,0,1-1.6-1.7V-10.1a1.6,1.6,0,0,1,1.6-1.7H51.7a1.6,1.6,0,0,1,1.7,1.7V28.3" transform="translate(20 20)"></path><path class="c" d="M16.6,4.7V18.5a1.9,1.9,0,0,0,.9,1.5,1.7,1.7,0,0,0,1.7-.1L29.6,13a1.5,1.5,0,0,0,.7-1.4,1.5,1.5,0,0,0-.7-1.4L19.2,3.3a1.7,1.7,0,0,0-1.7-.1A1.9,1.9,0,0,0,16.6,4.7Z" transform="translate(20 20)"></path><path class="b" d="M3.2,43.4H-8.5" transform="translate(20 20)"></path><path class="b" d="M3.2,50.1H-8.5" transform="translate(20 20)"></path></svg> 