<?xml version="1.0" encoding="UTF-8"?> <svg xmlns="http://www.w3.org/2000/svg" viewBox="0 0 100 100"><defs><style>.a,.b{fill:none;stroke-linecap:round;stroke-linejoin:round;stroke-width:3px;}.a{stroke:#777c7e;}.b{stroke:#f89834;}</style></defs><title>Icon-email-campaign</title><path class="a" d="M20.8,18l-1.7,1.7a2.4,2.4,0,0,1-1.7.7,2.8,2.8,0,0,1-1.7-.7l-5-5.1a2.3,2.3,0,0,1,0-3.4l1.7-1.7Z" transform="translate(20 20)"></path><path class="a" d="M12.3,9.4,22.5,19.7C28.1,14.1,38.6,9,43.9,6.6a2.6,2.6,0,0,0,1.4-1.8,2.3,2.3,0,0,0-.7-2.1L41.9,0,30.3-11.7l-2.7-2.7a2.2,2.2,0,0,0-2.1-.7,2.2,2.2,0,0,0-1.8,1.4C21.6-8.9,17.1.3,12.2,6.1A2.5,2.5,0,0,0,12.3,9.4Z" transform="translate(20 20)"></path><path class="a" d="M31.9-10.1l8.4,8.4a6.2,6.2,0,0,0-.8-7.6A6.2,6.2,0,0,0,31.9-10.1Z" transform="translate(20 20)"></path><path class="a" d="M22.5,19.7s3.6.7,9.4,6.1a2.5,2.5,0,0,0,3.3-.1L36.9,24a2.4,2.4,0,0,0,.7-1.8,2.3,2.3,0,0,0-.7-1.7,54,54,0,0,0-7.4-6.2A39.7,39.7,0,0,0,22.5,19.7Z" transform="translate(20 20)"></path><path class="a" d="M55.1-.1H71.8a3.4,3.4,0,0,1,3.4,3.3V63.4H-15.2V3.2A3.4,3.4,0,0,1-11.8-.1H8.3" transform="translate(20 20)"></path><path class="a" d="M55.1,6.6H66.8a1.7,1.7,0,0,1,1.7,1.7V63.4h-77V8.3A1.7,1.7,0,0,1-6.8,6.6h10" transform="translate(20 20)"></path><path class="a" d="M-16.8,63.4H76.8a1.7,1.7,0,0,1,1.7,1.7v6.7a6.7,6.7,0,0,1-6.7,6.7H-11.8a6.7,6.7,0,0,1-6.7-6.7V65.1A1.7,1.7,0,0,1-16.8,63.4Z" transform="translate(20 20)"></path><path class="a" d="M41.3,70.1H18.7a3.4,3.4,0,0,1-3-1.8l-2.4-4.9H46.7l-2.4,4.9A3.4,3.4,0,0,1,41.3,70.1Z" transform="translate(20 20)"></path><path class="a" d="M-18.5,70.1H1.6" transform="translate(20 20)"></path><path class="a" d="M78.5,70.1H58.4" transform="translate(20 20)"></path><path class="a" d="M45.1-15.2l3.3-3.3" transform="translate(20 20)"></path><path class="a" d="M48.4-10.1h3.3" transform="translate(20 20)"></path><rect class="b" x="28.3" y="53.3" width="43.5" height="23.41" rx="3.3"></rect><polyline class="b" points="29.9 55 50 68.4 70.1 55"></polyline><path class="b" d="M9.9,55.1,21.6,43.4" transform="translate(20 20)"></path><path class="b" d="M50.1,55.1,38.4,43.4" transform="translate(20 20)"></path></svg> 