<?xml version="1.0" encoding="UTF-8"?> <svg xmlns="http://www.w3.org/2000/svg" viewBox="0 0 100 100"><defs><style>.a,.b,.d{fill:none;stroke-linecap:round;stroke-linejoin:round;stroke-width:3px;}.a{stroke:#884f9c;}.b{stroke:#777c7e;}.c{fill:#777c7e;}.d{stroke:#f89834;}</style></defs><title>Icon-fast-seo</title><path class="a" d="M30,30,56.8,20" transform="translate(20 20)"></path><circle class="b" cx="50" cy="50" r="35.1"></circle><path class="b" d="M-5.1,30H65.1" transform="translate(20 20)"></path><path class="b" d="M78.5,31.7V28.3a1.6,1.6,0,0,0-1.7-1.6H74.9a1.8,1.8,0,0,1-1.7-1.6,45.3,45.3,0,0,0-3.3-12.5,1.6,1.6,0,0,1,.6-2.1l1.7-1a1.7,1.7,0,0,0,.6-2.3L71.2,4.3a1.7,1.7,0,0,0-2.3-.6l-1.7,1A1.7,1.7,0,0,1,65,4.2,44.6,44.6,0,0,0,55.8-5a1.7,1.7,0,0,1-.5-2.2l1-1.7a1.7,1.7,0,0,0-.6-2.3l-2.9-1.6a1.7,1.7,0,0,0-2.3.6l-1,1.7a1.6,1.6,0,0,1-2.1.6,45.3,45.3,0,0,0-12.5-3.3,1.8,1.8,0,0,1-1.6-1.7v-1.9a1.6,1.6,0,0,0-1.6-1.7H28.3a1.6,1.6,0,0,0-1.6,1.7v1.9a1.8,1.8,0,0,1-1.6,1.7A45.3,45.3,0,0,0,12.6-9.9a1.6,1.6,0,0,1-2.1-.6l-1-1.7a1.7,1.7,0,0,0-2.3-.6L4.3-11.2a1.7,1.7,0,0,0-.6,2.3l1,1.7A1.7,1.7,0,0,1,4.2-5,44.6,44.6,0,0,0-5,4.2a1.7,1.7,0,0,1-2.2.5l-1.7-1a1.7,1.7,0,0,0-2.3.6l-1.6,2.9a1.7,1.7,0,0,0,.6,2.3l1.7,1a1.6,1.6,0,0,1,.6,2.1,45.3,45.3,0,0,0-3.3,12.5,1.8,1.8,0,0,1-1.7,1.6h-1.9a1.6,1.6,0,0,0-1.7,1.6v3.4a1.6,1.6,0,0,0,1.7,1.6h1.9a1.8,1.8,0,0,1,1.7,1.6A45.3,45.3,0,0,0-9.9,47.4a1.6,1.6,0,0,1-.6,2.1l-1.7,1a1.7,1.7,0,0,0-.6,2.3l1.6,2.9a1.7,1.7,0,0,0,2.3.6l1.7-1a1.7,1.7,0,0,1,2.2.5A44.6,44.6,0,0,0,4.2,65a1.7,1.7,0,0,1,.5,2.2l-1,1.7a1.7,1.7,0,0,0,.6,2.3l2.9,1.6a1.7,1.7,0,0,0,2.3-.6l1-1.7a1.6,1.6,0,0,1,2.1-.6,45.3,45.3,0,0,0,12.5,3.3,1.8,1.8,0,0,1,1.6,1.7v1.9a1.6,1.6,0,0,0,1.6,1.7h3.4a1.6,1.6,0,0,0,1.6-1.7V74.9a1.8,1.8,0,0,1,1.6-1.7,45.3,45.3,0,0,0,12.5-3.3,1.6,1.6,0,0,1,2.1.6l1,1.7a1.7,1.7,0,0,0,2.3.6l2.9-1.6a1.7,1.7,0,0,0,.6-2.3l-1-1.7a1.7,1.7,0,0,1,.5-2.2A44.6,44.6,0,0,0,65,55.8a1.7,1.7,0,0,1,2.2-.5l1.7,1a1.7,1.7,0,0,0,2.3-.6l1.6-2.9a1.7,1.7,0,0,0-.6-2.3l-1.7-1a1.6,1.6,0,0,1-.6-2.1,45.3,45.3,0,0,0,3.3-12.5,1.8,1.8,0,0,1,1.7-1.6h1.9A1.6,1.6,0,0,0,78.5,31.7Z" transform="translate(20 20)"></path><circle class="c" cx="23.2" cy="43.3" r="1.7"></circle><circle class="c" cx="26.6" cy="34.9" r="1.7"></circle><circle class="c" cx="31.6" cy="28.3" r="1.7"></circle><circle class="c" cx="40" cy="23.2" r="1.7"></circle><circle class="c" cx="73.4" cy="34.9" r="1.7"></circle><circle class="c" cx="68.4" cy="28.3" r="1.7"></circle><circle class="c" cx="60" cy="23.2" r="1.7"></circle><circle class="c" cx="50" cy="19.9" r="1.7"></circle><path class="b" d="M13.3,30A16.7,16.7,0,0,1,41.7,18.1" transform="translate(20 20)"></path><polyline class="b" points="61.7 33 61.7 38.1 55 39.7"></polyline><path class="d" d="M13.3,48.4a3.3,3.3,0,0,0,3.3,3.3A3.5,3.5,0,0,0,20,48.4c0-3.3-6.7-3.3-6.7-6.7a3.4,3.4,0,0,1,6.7,0" transform="translate(20 20)"></path><path class="d" d="M31.7,51.7H28.3a1.6,1.6,0,0,1-1.6-1.6V40a1.6,1.6,0,0,1,1.6-1.6h3.4" transform="translate(20 20)"></path><path class="d" d="M26.7,45.1h5" transform="translate(20 20)"></path><path class="d" d="M42.5,38.4h0a4.1,4.1,0,0,1,4.2,4.1v5.1a4.1,4.1,0,0,1-4.2,4.1h0a4.1,4.1,0,0,1-4.1-4.1V42.5A4.1,4.1,0,0,1,42.5,38.4Z" transform="translate(20 20)"></path></svg> 