<?xml version="1.0" encoding="UTF-8"?> <svg xmlns="http://www.w3.org/2000/svg" viewBox="0 0 100 100"><defs><style>.a,.b{fill:none;stroke-linecap:round;stroke-linejoin:round;stroke-width:3px;}.a{stroke:#f89834;}.b{stroke:#777c7e;}</style></defs><title>Icon-teamwork-idea</title><path class="a" d="M30-18.5a6.7,6.7,0,0,0-6.7,6.7c0,4.2,3.4,5.9,3.4,10h6.6c0-4.1,3.4-5.8,3.4-10A6.7,6.7,0,0,0,30-18.5Z" transform="translate(20 20)"></path><path class="a" d="M30,4.9a3.3,3.3,0,0,1-3.3-3.3V-1.8h6.6V1.6A3.3,3.3,0,0,1,30,4.9Z" transform="translate(20 20)"></path><path class="b" d="M30,63.4c8.4,0,10-10,10-10,5.1-3.3,0-6.7,0-6.7a10,10,0,0,0-20,0s-5.1,3.4,0,6.7C20,53.4,21.6,63.4,30,63.4Z" transform="translate(20 20)"></path><path class="b" d="M35.6,61.5c.6,3.4,1.9,7,4.4,7,5.1,0,8.4,5,8.4,10H11.6c0-5,3.3-10,8.4-10,2.5,0,3.8-3.6,4.4-7" transform="translate(20 20)"></path><path class="b" d="M60.1,58.4c8.4,0,10-10,10-10,5.1-3.3,0-6.7,0-6.7a10,10,0,1,0-20,0s-5,3.4,0,6.7C50.1,48.4,51.7,58.4,60.1,58.4Z" transform="translate(20 20)"></path><path class="b" d="M42.6,69a8.5,8.5,0,0,1,7.5-5.6c2.5,0,3.8-3.5,4.4-6.9" transform="translate(20 20)"></path><path class="b" d="M65.7,56.5c.6,3.4,1.9,6.9,4.4,6.9,5.1,0,8.4,5.1,8.4,10.1H47.2" transform="translate(20 20)"></path><path class="b" d="M-.1,58.4c8.4,0,10-10,10-10,5-3.3,0-6.7,0-6.7a10,10,0,0,0-10-10,10,10,0,0,0-10,10s-5.1,3.4,0,6.7C-10.1,48.4-8.5,58.4-.1,58.4Z" transform="translate(20 20)"></path><path class="b" d="M-5.7,56.5c-.6,3.4-1.9,6.9-4.4,6.9-5.1,0-8.4,5.1-8.4,10.1H12.8" transform="translate(20 20)"></path><path class="b" d="M5.5,56.5c.6,3.4,1.9,6.9,4.4,6.9A8.5,8.5,0,0,1,17.4,69" transform="translate(20 20)"></path><path class="b" d="M46.7,30c8.4,0,10.1-10,10.1-10,5-3.4,0-6.7,0-6.7a10.1,10.1,0,1,0-20.1,0s-5,3.3,0,6.7C36.7,20,38.4,30,46.7,30Z" transform="translate(20 20)"></path><path class="b" d="M31.9,36.9A7.1,7.1,0,0,1,36.7,35c2.6,0,3.8-3.5,4.4-7" transform="translate(20 20)"></path><path class="b" d="M54.3,33.5a13,13,0,0,1-2-5.5" transform="translate(20 20)"></path><polyline class="b" points="59.9 65.1 66.7 65.1 67.8 65.1"></polyline><path class="b" d="M13.3,30c8.3,0,10-10,10-10,5-3.4,0-6.7,0-6.7a10.1,10.1,0,1,0-20.1,0s-5,3.3,0,6.7C3.2,20,4.9,30,13.3,30Z" transform="translate(20 20)"></path><polyline class="b" points="32.2 65.1 33.3 65.1 40.1 65.1"></polyline><path class="b" d="M7.7,28a13,13,0,0,1-2,5.5" transform="translate(20 20)"></path><path class="b" d="M18.9,28c.6,3.5,1.8,7,4.4,7a7.1,7.1,0,0,1,4.8,1.9" transform="translate(20 20)"></path><path class="a" d="M16.6-11.8H9.9" transform="translate(20 20)"></path><path class="a" d="M18.3-6.8,11.6-3.4" transform="translate(20 20)"></path><path class="a" d="M43.4-11.8h6.7" transform="translate(20 20)"></path><path class="a" d="M41.7-6.8l6.7,3.4" transform="translate(20 20)"></path></svg> 