<?xml version="1.0" encoding="UTF-8"?> <svg xmlns="http://www.w3.org/2000/svg" id="Layer_1" data-name="Layer 1" viewBox="0 0 100 100"><defs><style>.cls-1,.cls-2,.cls-3{fill:none;stroke-linecap:round;stroke-linejoin:round;stroke-width:3px;}.cls-1{stroke:#777c7e;}.cls-2{stroke:#f89834;}.cls-3{stroke:#884f9c;}</style></defs><title>Icon-increase-users</title><path class="cls-1" d="M42.8,49.8l-.7-.5-5-2.6c-.1-.1-.3-.2-.3-.9V44.2a15.6,15.6,0,0,0,1.7-3.7,2.5,2.5,0,0,0,1.4-1.9V36.5a2,2,0,0,0-1-1.6V32.3a5.2,5.2,0,0,0-1.3-3.8,7.5,7.5,0,0,0-5.9-2,7.9,7.9,0,0,0-5.9,2,5.2,5.2,0,0,0-1.3,3.8v2.6a2,2,0,0,0-1,1.6v2.1a2.3,2.3,0,0,0,1.4,1.9,13.7,13.7,0,0,0,1.7,3.7V46c0,.7-.2.8-.3.9l-5,2.6a5.1,5.1,0,0,0-2.9,4.6v1.7a1,1,0,0,0,1,1H43.6"></path><path class="cls-1" d="M56.7,56.7H80.9a.9.9,0,0,0,1-1V54A5.1,5.1,0,0,0,79,49.4l-5-2.6c-.1-.1-.3-.2-.3-.9V44.3a15.6,15.6,0,0,0,1.7-3.7,2.5,2.5,0,0,0,1.4-1.9V36.6a2.3,2.3,0,0,0-1-1.6V32.4a5.3,5.3,0,0,0-1.3-3.8,7.5,7.5,0,0,0-5.9-2,7.9,7.9,0,0,0-5.9,2,5.2,5.2,0,0,0-1.3,3.8V35a2.3,2.3,0,0,0-1,1.6v2.1a2.3,2.3,0,0,0,1.4,1.9,13.7,13.7,0,0,0,1.7,3.7V46c0,.7-.2.8-.3.9l-5,2.6a1.8,1.8,0,0,0-.7.5"></path><path class="cls-2" d="M36.6,70.8V69a5.1,5.1,0,0,1,2.9-4.6l5-2.6c.1-.1.3-.2.3-.9V59.3a15.6,15.6,0,0,1-1.7-3.7,2.5,2.5,0,0,1-1.4-1.9V51.6a2,2,0,0,1,1-1.6V47.4A5.2,5.2,0,0,1,44,43.6a7.5,7.5,0,0,1,5.9-2,7.9,7.9,0,0,1,5.9,2,5.2,5.2,0,0,1,1.3,3.8V50a2,2,0,0,1,1,1.6v2.1a2.3,2.3,0,0,1-1.4,1.9A13.7,13.7,0,0,1,55,59.3V61c0,.7.2.8.3.9l5,2.6a5.1,5.1,0,0,1,2.9,4.6v1.7"></path><path class="cls-1" d="M91.8,11.5a6.3,6.3,0,0,1,4.7,2,6.7,6.7,0,0,1,2,4.7V78.4a6.3,6.3,0,0,1-2,4.7,6.7,6.7,0,0,1-4.7,2H8.2a6.3,6.3,0,0,1-4.7-2,6.7,6.7,0,0,1-2-4.7V18.2a6.3,6.3,0,0,1,2-4.7,7.1,7.1,0,0,1,4.7-2"></path><path class="cls-1" d="M1.5,71.7h97"></path><path class="cls-1" d="M63.4,85.1H36.6v6.7H63.4Z"></path><path class="cls-1" d="M28.3,91.8H71.8a5,5,0,0,1,5,5v1.7H23.2V96.8A5.1,5.1,0,0,1,28.3,91.8Z"></path><path class="cls-1" d="M18.2,33.3H14.9V19.9"></path><path class="cls-1" d="M28.3,19.9v1.7"></path><path class="cls-1" d="M28.3,19.9h5L21.6,9.9,9.9,19.9h5"></path><path class="cls-1" d="M85.1,19.9V33.3H81.8"></path><path class="cls-1" d="M71.7,21.6V19.9"></path><path class="cls-1" d="M85.1,19.9h5L78.4,9.9l-11.7,10h5"></path><path class="cls-3" d="M43.3,26.6V13.2"></path><path class="cls-3" d="M56.7,13.2V26.6"></path><path class="cls-3" d="M56.7,13.2h5L50,1.5,38.3,13.2h5"></path></svg> 