<?xml version="1.0" encoding="UTF-8"?> <svg xmlns="http://www.w3.org/2000/svg" viewBox="0 0 100 100"><defs><style>.a,.b{fill:none;stroke-linecap:round;stroke-linejoin:round;stroke-width:3px;}.a{stroke:#777c7e;}.b{stroke:#f89834;}</style></defs><title>Icon-website-options</title><path class="a" d="M51.7,78.5H-15.2a3.3,3.3,0,0,1-3.3-3.3V-15.2a3.3,3.3,0,0,1,3.3-3.3H58.4a3.4,3.4,0,0,1,3.4,3.3V26.9" transform="translate(20 20)"></path><path class="a" d="M-10.1-11.8h3.3" transform="translate(20 20)"></path><path class="a" d="M50.1-11.8h3.3" transform="translate(20 20)"></path><path class="a" d="M6.6-11.8H36.7" transform="translate(20 20)"></path><path class="a" d="M-18.5-5.1H61.8" transform="translate(20 20)"></path><circle class="a" cx="71.7" cy="71.7" r="26.8"></circle><rect class="a" x="8.2" y="21.6" width="66.9" height="16.72" rx="1.7"></rect><path class="a" d="M26.9,61.8h-37a1.6,1.6,0,0,0-1.7,1.6v6.7a1.6,1.6,0,0,0,1.7,1.7H34" transform="translate(20 20)"></path><path class="a" d="M51.7,25H25a1.7,1.7,0,0,0-1.7,1.7v10A1.8,1.8,0,0,0,25,38.4h3.6" transform="translate(20 20)"></path><rect class="a" x="8.2" y="45" width="28.4" height="30.1" rx="1.7"></rect><circle class="b" cx="71.7" cy="71.7" r="8.4"></circle><path class="b" d="M69.9,54.4a16.3,16.3,0,0,0,0-5.4l-3.6-1.2a27.5,27.5,0,0,0-1.5-3.6l1.7-3.4A15.2,15.2,0,0,0,62.7,37l-3.5,1.7a21.7,21.7,0,0,0-3.5-1.5l-1.3-3.7a24.4,24.4,0,0,0-5.4,0l-1.2,3.7a27.5,27.5,0,0,0-3.6,1.5L40.8,37A13.7,13.7,0,0,0,37,40.8l1.7,3.4a27.5,27.5,0,0,0-1.5,3.6L33.5,49a24.4,24.4,0,0,0,0,5.4l3.7,1.3a21.7,21.7,0,0,0,1.5,3.5L37,62.7a15.2,15.2,0,0,0,3.8,3.8l3.4-1.7a27.5,27.5,0,0,0,3.6,1.5L49,69.9a16.3,16.3,0,0,0,5.4,0l1.3-3.6a21.7,21.7,0,0,0,3.5-1.5l3.5,1.7a17.1,17.1,0,0,0,3.8-3.8l-1.7-3.5a21.7,21.7,0,0,0,1.5-3.5Z" transform="translate(20 20)"></path></svg> 