<?xml version="1.0" encoding="UTF-8"?> <svg xmlns="http://www.w3.org/2000/svg" viewBox="0 0 100 93.3"><defs><style>.a,.b,.c{fill:none;stroke-linecap:round;stroke-linejoin:round;stroke-width:3px;}.a{stroke:#777c7e;}.b{stroke:#884f9c;}.c{stroke:#f89834;}</style></defs><title>Icon-targeted-sales</title><path class="a" d="M8.3-3.7A38.3,38.3,0,0,1,55.1-1.1" transform="translate(20 18.7)"></path><path class="a" d="M59.1,2.9A38.4,38.4,0,0,1,4.9,57.1" transform="translate(20 18.7)"></path><path class="a" d="M.9,53.1A38.3,38.3,0,0,1,.9,2.9" transform="translate(20 18.7)"></path><path class="a" d="M58.4-17.2H75.2a3.4,3.4,0,0,1,3.3,3.4V2.9H58.4A3.3,3.3,0,0,1,55.1-.4V-13.8A3.4,3.4,0,0,1,58.4-17.2Z" transform="translate(20 18.7)"></path><path class="a" d="M61.8-10.5h3.3" transform="translate(20 18.7)"></path><path class="a" d="M61.8-3.8h10" transform="translate(20 18.7)"></path><path class="a" d="M-11.8-17.2H4.9a3.4,3.4,0,0,1,3.4,3.4V-.4A3.4,3.4,0,0,1,4.9,2.9H-15.2V-13.8A3.4,3.4,0,0,1-11.8-17.2Z" transform="translate(20 18.7)"></path><path class="b" d="M-8.5-10.5h3.4" transform="translate(20 18.7)"></path><path class="b" d="M-8.5-3.8H1.6" transform="translate(20 18.7)"></path><path class="a" d="M-15.2,53.1H1.6a3.3,3.3,0,0,1,3.3,3.3V73.2H-15.2a3.4,3.4,0,0,1-3.3-3.4V56.4A3.3,3.3,0,0,1-15.2,53.1Z" transform="translate(20 18.7)"></path><path class="a" d="M-11.8,59.8h3.3" transform="translate(20 18.7)"></path><path class="a" d="M-11.8,66.5h10" transform="translate(20 18.7)"></path><circle class="a" cx="50" cy="46.7" r="26.8"></circle><circle class="a" cx="50" cy="46.7" r="16.7"></circle><path class="a" d="M-15.2,1.2V24.7A3.4,3.4,0,0,0-11.8,28H18.3" transform="translate(20 18.7)"></path><path class="a" d="M-.1,73.2H26.7A3.4,3.4,0,0,0,30,69.8V61.4" transform="translate(20 18.7)"></path><path class="a" d="M78.5-3.8V24.7A3.3,3.3,0,0,1,75.2,28H51.7" transform="translate(20 18.7)"></path><path class="c" d="M25,32.2a4.8,4.8,0,0,0,5,4.2c2.5,0,5-1.7,5-4.2S32.5,28,30,28s-5-1.7-5-4.2,2.5-4.2,5-4.2a4.8,4.8,0,0,1,5,4.2" transform="translate(20 18.7)"></path><path class="c" d="M30,18v1.6" transform="translate(20 18.7)"></path><path class="c" d="M30,36.4V38" transform="translate(20 18.7)"></path></svg> 